<mxfile host="app.diagrams.net" agent="Mozilla/5.0 (Macintosh; Intel Mac OS X 10_15_7) AppleWebKit/537.36 (KHTML, like Gecko) Chrome/130.0.0.0 Safari/537.36" version="24.8.4">
  <diagram name="Page-1" id="eyfkakkacGh3a8v_Sbdt">
    <mxGraphModel dx="2972" dy="1453" grid="1" gridSize="10" guides="1" tooltips="1" connect="1" arrows="1" fold="1" page="1" pageScale="1" pageWidth="827" pageHeight="1169" math="0" shadow="0">
      <root>
        <mxCell id="0" />
        <mxCell id="1" parent="0" />
        <mxCell id="AzJEjhhExv7KZorfWVKb-4" style="edgeStyle=orthogonalEdgeStyle;rounded=0;orthogonalLoop=1;jettySize=auto;html=1;exitX=0;exitY=0.5;exitDx=0;exitDy=0;entryX=0.5;entryY=0;entryDx=0;entryDy=0;" edge="1" parent="1" source="AzJEjhhExv7KZorfWVKb-1" target="AzJEjhhExv7KZorfWVKb-2">
          <mxGeometry relative="1" as="geometry">
            <mxPoint x="-280" y="120" as="targetPoint" />
          </mxGeometry>
        </mxCell>
        <mxCell id="AzJEjhhExv7KZorfWVKb-5" style="edgeStyle=orthogonalEdgeStyle;rounded=0;orthogonalLoop=1;jettySize=auto;html=1;entryX=0.5;entryY=0;entryDx=0;entryDy=0;" edge="1" parent="1" source="AzJEjhhExv7KZorfWVKb-1" target="AzJEjhhExv7KZorfWVKb-3">
          <mxGeometry relative="1" as="geometry">
            <mxPoint x="100" y="120" as="targetPoint" />
          </mxGeometry>
        </mxCell>
        <mxCell id="AzJEjhhExv7KZorfWVKb-1" value="Chipin System&lt;div&gt;&lt;span id=&quot;docs-internal-guid-c8b4a495-7fff-66cb-fd76-9ab24fca8407&quot;&gt;&lt;p style=&quot;line-height:1.38;margin-top:12pt;margin-bottom:12pt;&quot; dir=&quot;ltr&quot;&gt;&lt;span style=&quot;font-size: 11pt; font-family: Arial, sans-serif; background-color: transparent; font-variant-numeric: normal; font-variant-east-asian: normal; font-variant-alternates: normal; font-variant-position: normal; vertical-align: baseline; white-space-collapse: preserve;&quot;&gt;Initialises the system, manages the login, and routes to appropriate functionalities.&lt;/span&gt;&lt;/p&gt;&lt;div&gt;&lt;span style=&quot;font-size: 11pt; font-family: Arial, sans-serif; background-color: transparent; font-variant-numeric: normal; font-variant-east-asian: normal; font-variant-alternates: normal; font-variant-position: normal; vertical-align: baseline; white-space-collapse: preserve;&quot;&gt;&lt;br&gt;&lt;/span&gt;&lt;/div&gt;&lt;/span&gt;&lt;/div&gt;" style="rounded=0;whiteSpace=wrap;html=1;" vertex="1" parent="1">
          <mxGeometry x="-196" width="216" height="140" as="geometry" />
        </mxCell>
        <mxCell id="AzJEjhhExv7KZorfWVKb-19" style="edgeStyle=orthogonalEdgeStyle;rounded=0;orthogonalLoop=1;jettySize=auto;html=1;" edge="1" parent="1" source="AzJEjhhExv7KZorfWVKb-2" target="AzJEjhhExv7KZorfWVKb-6">
          <mxGeometry relative="1" as="geometry" />
        </mxCell>
        <mxCell id="AzJEjhhExv7KZorfWVKb-2" value="user management" style="rounded=0;whiteSpace=wrap;html=1;" vertex="1" parent="1">
          <mxGeometry x="-360" y="180" width="150" height="60" as="geometry" />
        </mxCell>
        <mxCell id="AzJEjhhExv7KZorfWVKb-3" value="event management" style="rounded=0;whiteSpace=wrap;html=1;" vertex="1" parent="1">
          <mxGeometry x="10" y="180" width="150" height="60" as="geometry" />
        </mxCell>
        <mxCell id="AzJEjhhExv7KZorfWVKb-18" style="edgeStyle=orthogonalEdgeStyle;rounded=0;orthogonalLoop=1;jettySize=auto;html=1;entryX=0.5;entryY=0;entryDx=0;entryDy=0;" edge="1" parent="1" source="AzJEjhhExv7KZorfWVKb-6" target="AzJEjhhExv7KZorfWVKb-9">
          <mxGeometry relative="1" as="geometry" />
        </mxCell>
        <mxCell id="AzJEjhhExv7KZorfWVKb-6" value="&lt;span id=&quot;docs-internal-guid-e5633729-7fff-b6b7-b1ed-ffae415ccd2e&quot;&gt;&lt;p style=&quot;line-height:1.38;margin-top:12pt;margin-bottom:12pt;&quot; dir=&quot;ltr&quot;&gt;&lt;span style=&quot;font-family: Arial, sans-serif; background-color: transparent; font-variant-numeric: normal; font-variant-east-asian: normal; font-variant-alternates: normal; font-variant-position: normal; vertical-align: baseline; white-space-collapse: preserve;&quot;&gt;Registers new students and trusted adults.&lt;/span&gt;&lt;/p&gt;&lt;div&gt;&lt;span style=&quot;font-family: Arial, sans-serif; background-color: transparent; font-variant-numeric: normal; font-variant-east-asian: normal; font-variant-alternates: normal; font-variant-position: normal; vertical-align: baseline; white-space-collapse: preserve;&quot;&gt;&lt;br&gt;&lt;/span&gt;&lt;/div&gt;&lt;/span&gt;" style="rounded=0;whiteSpace=wrap;html=1;" vertex="1" parent="1">
          <mxGeometry x="-365" y="270" width="160" height="70" as="geometry" />
        </mxCell>
        <mxCell id="AzJEjhhExv7KZorfWVKb-17" style="edgeStyle=orthogonalEdgeStyle;rounded=0;orthogonalLoop=1;jettySize=auto;html=1;entryX=0.5;entryY=0;entryDx=0;entryDy=0;" edge="1" parent="1" source="AzJEjhhExv7KZorfWVKb-9" target="AzJEjhhExv7KZorfWVKb-10">
          <mxGeometry relative="1" as="geometry" />
        </mxCell>
        <mxCell id="AzJEjhhExv7KZorfWVKb-9" value="validate student&amp;nbsp;" style="rounded=0;whiteSpace=wrap;html=1;" vertex="1" parent="1">
          <mxGeometry x="-360" y="380" width="150" height="60" as="geometry" />
        </mxCell>
        <mxCell id="AzJEjhhExv7KZorfWVKb-20" style="edgeStyle=orthogonalEdgeStyle;rounded=0;orthogonalLoop=1;jettySize=auto;html=1;" edge="1" parent="1" source="AzJEjhhExv7KZorfWVKb-10">
          <mxGeometry relative="1" as="geometry">
            <mxPoint x="-430" y="610" as="targetPoint" />
          </mxGeometry>
        </mxCell>
        <mxCell id="AzJEjhhExv7KZorfWVKb-10" value="success" style="rounded=0;whiteSpace=wrap;html=1;" vertex="1" parent="1">
          <mxGeometry x="-480" y="480" width="100" height="40" as="geometry" />
        </mxCell>
        <mxCell id="AzJEjhhExv7KZorfWVKb-15" style="edgeStyle=orthogonalEdgeStyle;rounded=0;orthogonalLoop=1;jettySize=auto;html=1;entryX=0.5;entryY=0;entryDx=0;entryDy=0;" edge="1" parent="1" source="AzJEjhhExv7KZorfWVKb-11" target="AzJEjhhExv7KZorfWVKb-12">
          <mxGeometry relative="1" as="geometry" />
        </mxCell>
        <mxCell id="AzJEjhhExv7KZorfWVKb-11" value="create group, by registering the name of the group, aswell as the budget limits,etc" style="rounded=0;whiteSpace=wrap;html=1;" vertex="1" parent="1">
          <mxGeometry x="20" y="280" width="150" height="60" as="geometry" />
        </mxCell>
        <mxCell id="AzJEjhhExv7KZorfWVKb-16" style="edgeStyle=orthogonalEdgeStyle;rounded=0;orthogonalLoop=1;jettySize=auto;html=1;entryX=0.5;entryY=0;entryDx=0;entryDy=0;" edge="1" parent="1" source="AzJEjhhExv7KZorfWVKb-12" target="AzJEjhhExv7KZorfWVKb-13">
          <mxGeometry relative="1" as="geometry" />
        </mxCell>
        <mxCell id="AzJEjhhExv7KZorfWVKb-12" value="invite members and add a method that enables the distribution of costs" style="rounded=0;whiteSpace=wrap;html=1;" vertex="1" parent="1">
          <mxGeometry x="20" y="380" width="150" height="60" as="geometry" />
        </mxCell>
        <mxCell id="AzJEjhhExv7KZorfWVKb-38" style="edgeStyle=orthogonalEdgeStyle;rounded=0;orthogonalLoop=1;jettySize=auto;html=1;" edge="1" parent="1" source="AzJEjhhExv7KZorfWVKb-13" target="AzJEjhhExv7KZorfWVKb-27">
          <mxGeometry relative="1" as="geometry" />
        </mxCell>
        <mxCell id="AzJEjhhExv7KZorfWVKb-13" value="students pay and process the payment" style="rounded=0;whiteSpace=wrap;html=1;" vertex="1" parent="1">
          <mxGeometry x="20" y="500" width="150" height="60" as="geometry" />
        </mxCell>
        <mxCell id="AzJEjhhExv7KZorfWVKb-14" style="edgeStyle=orthogonalEdgeStyle;rounded=0;orthogonalLoop=1;jettySize=auto;html=1;entryX=0.433;entryY=0.033;entryDx=0;entryDy=0;entryPerimeter=0;" edge="1" parent="1" source="AzJEjhhExv7KZorfWVKb-3" target="AzJEjhhExv7KZorfWVKb-11">
          <mxGeometry relative="1" as="geometry" />
        </mxCell>
        <mxCell id="AzJEjhhExv7KZorfWVKb-41" style="edgeStyle=orthogonalEdgeStyle;rounded=0;orthogonalLoop=1;jettySize=auto;html=1;entryX=0;entryY=0.25;entryDx=0;entryDy=0;" edge="1" parent="1" source="AzJEjhhExv7KZorfWVKb-21" target="AzJEjhhExv7KZorfWVKb-39">
          <mxGeometry relative="1" as="geometry" />
        </mxCell>
        <mxCell id="AzJEjhhExv7KZorfWVKb-21" value="proceed to the page after login&lt;div&gt;&lt;br&gt;&lt;/div&gt;&lt;div&gt;&lt;span id=&quot;docs-internal-guid-7abd6764-7fff-e53c-2830-314405cb22b4&quot;&gt;&lt;span style=&quot;font-family: Arial, sans-serif; background-color: transparent; font-variant-numeric: normal; font-variant-east-asian: normal; font-variant-alternates: normal; font-variant-position: normal; vertical-align: baseline; white-space-collapse: preserve;&quot;&gt;&lt;font style=&quot;font-size: 12px;&quot;&gt;Authenticates users and manages sessions.&lt;/font&gt;&lt;/span&gt;&lt;/span&gt;&lt;/div&gt;" style="rounded=0;whiteSpace=wrap;html=1;" vertex="1" parent="1">
          <mxGeometry x="-580" y="570" width="200" height="90" as="geometry" />
        </mxCell>
        <mxCell id="AzJEjhhExv7KZorfWVKb-24" style="edgeStyle=orthogonalEdgeStyle;rounded=0;orthogonalLoop=1;jettySize=auto;html=1;entryX=0.5;entryY=0;entryDx=0;entryDy=0;" edge="1" parent="1" source="AzJEjhhExv7KZorfWVKb-22" target="AzJEjhhExv7KZorfWVKb-23">
          <mxGeometry relative="1" as="geometry" />
        </mxCell>
        <mxCell id="AzJEjhhExv7KZorfWVKb-22" value="failure, such as incorrect password, already existing username, and factors that disable user authentication&amp;nbsp;" style="rounded=0;whiteSpace=wrap;html=1;" vertex="1" parent="1">
          <mxGeometry x="-360" y="470" width="150" height="90" as="geometry" />
        </mxCell>
        <mxCell id="AzJEjhhExv7KZorfWVKb-23" value="error message" style="rounded=0;whiteSpace=wrap;html=1;" vertex="1" parent="1">
          <mxGeometry x="-330" y="610" width="90" height="30" as="geometry" />
        </mxCell>
        <mxCell id="AzJEjhhExv7KZorfWVKb-26" style="edgeStyle=orthogonalEdgeStyle;rounded=0;orthogonalLoop=1;jettySize=auto;html=1;entryX=0.421;entryY=0.056;entryDx=0;entryDy=0;entryPerimeter=0;" edge="1" parent="1" source="AzJEjhhExv7KZorfWVKb-9" target="AzJEjhhExv7KZorfWVKb-22">
          <mxGeometry relative="1" as="geometry" />
        </mxCell>
        <mxCell id="AzJEjhhExv7KZorfWVKb-32" style="edgeStyle=orthogonalEdgeStyle;rounded=0;orthogonalLoop=1;jettySize=auto;html=1;" edge="1" parent="1" source="AzJEjhhExv7KZorfWVKb-27">
          <mxGeometry relative="1" as="geometry">
            <mxPoint x="250" y="660" as="targetPoint" />
          </mxGeometry>
        </mxCell>
        <mxCell id="AzJEjhhExv7KZorfWVKb-33" style="edgeStyle=orthogonalEdgeStyle;rounded=0;orthogonalLoop=1;jettySize=auto;html=1;exitX=0;exitY=0.5;exitDx=0;exitDy=0;entryX=0.5;entryY=0;entryDx=0;entryDy=0;" edge="1" parent="1" source="AzJEjhhExv7KZorfWVKb-27" target="AzJEjhhExv7KZorfWVKb-28">
          <mxGeometry relative="1" as="geometry" />
        </mxCell>
        <mxCell id="AzJEjhhExv7KZorfWVKb-27" value="process payment (transaction screen)" style="rounded=0;whiteSpace=wrap;html=1;" vertex="1" parent="1">
          <mxGeometry x="20" y="590" width="150" height="60" as="geometry" />
        </mxCell>
        <mxCell id="AzJEjhhExv7KZorfWVKb-34" style="edgeStyle=orthogonalEdgeStyle;rounded=0;orthogonalLoop=1;jettySize=auto;html=1;" edge="1" parent="1" source="AzJEjhhExv7KZorfWVKb-28" target="AzJEjhhExv7KZorfWVKb-35">
          <mxGeometry relative="1" as="geometry">
            <mxPoint x="-140" y="840" as="targetPoint" />
          </mxGeometry>
        </mxCell>
        <mxCell id="AzJEjhhExv7KZorfWVKb-28" value="payment denied (lack of funds from bank, etc)&amp;nbsp;&lt;span style=&quot;color: rgba(0, 0, 0, 0); font-family: monospace; font-size: 0px; text-align: start; text-wrap-mode: nowrap;&quot;&gt;%3CmxGraphModel%3E%3Croot%3E%3CmxCell%20id%3D%220%22%2F%3E%3CmxCell%20id%3D%221%22%20parent%3D%220%22%2F%3E%3CmxCell%20id%3D%222%22%20value%3D%22process%20payment%20(transaction%20screen)%22%20style%3D%22rounded%3D0%3BwhiteSpace%3Dwrap%3Bhtml%3D1%3B%22%20vertex%3D%221%22%20parent%3D%221%22%3E%3CmxGeometry%20x%3D%22530%22%20y%3D%22610%22%20width%3D%22150%22%20height%3D%2260%22%20as%3D%22geometry%22%2F%3E%3C%2FmxCell%3E%3C%2Froot%3E%3C%2FmxGraphModel%3E&lt;/span&gt;" style="rounded=0;whiteSpace=wrap;html=1;" vertex="1" parent="1">
          <mxGeometry x="-120" y="670" width="150" height="60" as="geometry" />
        </mxCell>
        <mxCell id="AzJEjhhExv7KZorfWVKb-31" value="" style="edgeStyle=orthogonalEdgeStyle;rounded=0;orthogonalLoop=1;jettySize=auto;html=1;" edge="1" parent="1" source="AzJEjhhExv7KZorfWVKb-29" target="AzJEjhhExv7KZorfWVKb-30">
          <mxGeometry relative="1" as="geometry" />
        </mxCell>
        <mxCell id="AzJEjhhExv7KZorfWVKb-29" value="payment successful" style="rounded=0;whiteSpace=wrap;html=1;" vertex="1" parent="1">
          <mxGeometry x="167" y="660" width="150" height="60" as="geometry" />
        </mxCell>
        <mxCell id="AzJEjhhExv7KZorfWVKb-30" value="balance added to the group total" style="rounded=0;whiteSpace=wrap;html=1;" vertex="1" parent="1">
          <mxGeometry x="180" y="780" width="130" height="50" as="geometry" />
        </mxCell>
        <mxCell id="AzJEjhhExv7KZorfWVKb-36" style="edgeStyle=orthogonalEdgeStyle;rounded=0;orthogonalLoop=1;jettySize=auto;html=1;entryX=0;entryY=0;entryDx=0;entryDy=0;" edge="1" parent="1" source="AzJEjhhExv7KZorfWVKb-35" target="AzJEjhhExv7KZorfWVKb-27">
          <mxGeometry relative="1" as="geometry">
            <Array as="points">
              <mxPoint x="-140" y="800" />
              <mxPoint x="-140" y="570" />
              <mxPoint y="570" />
              <mxPoint y="590" />
            </Array>
          </mxGeometry>
        </mxCell>
        <mxCell id="AzJEjhhExv7KZorfWVKb-35" value="back to transaction screen" style="rounded=0;whiteSpace=wrap;html=1;" vertex="1" parent="1">
          <mxGeometry x="-105" y="770" width="120" height="60" as="geometry" />
        </mxCell>
        <mxCell id="AzJEjhhExv7KZorfWVKb-42" style="edgeStyle=orthogonalEdgeStyle;rounded=0;orthogonalLoop=1;jettySize=auto;html=1;entryX=0.5;entryY=1;entryDx=0;entryDy=0;" edge="1" parent="1" source="AzJEjhhExv7KZorfWVKb-39" target="AzJEjhhExv7KZorfWVKb-30">
          <mxGeometry relative="1" as="geometry">
            <mxPoint x="260" y="870" as="targetPoint" />
          </mxGeometry>
        </mxCell>
        <mxCell id="AzJEjhhExv7KZorfWVKb-39" value="Return to chipin function page&amp;nbsp;" style="rounded=0;whiteSpace=wrap;html=1;" vertex="1" parent="1">
          <mxGeometry x="-330" y="840" width="120" height="60" as="geometry" />
        </mxCell>
      </root>
    </mxGraphModel>
  </diagram>
</mxfile>
